<?xml version="1.0" encoding="UTF-8"?>
<svg version="1.1" xmlns="http://www.w3.org/2000/svg" width="1007" height="228">
<path d="M0 0 C25.08 0 50.16 0 76 0 C76 12.54 76 25.08 76 38 C94.81 38 113.62 38 133 38 C133 63.08 133 88.16 133 114 C120.46 114 107.92 114 95 114 C95 126.54 95 139.08 95 152 C107.54 152 120.08 152 133 152 C133 177.08 133 202.16 133 228 C70.3 228 7.6 228 -57 228 C-57 209.19 -57 190.38 -57 171 C-69.54 171 -82.08 171 -95 171 C-95 145.92 -95 120.84 -95 95 C-82.46 95 -69.92 95 -57 95 C-57 76.19 -57 57.38 -57 38 C-38.19 38 -19.38 38 0 38 C0 25.46 0 12.92 0 0 Z M19 19 C19 31.54 19 44.08 19 57 C0.19 57 -18.62 57 -38 57 C-38 75.81 -38 94.62 -38 114 C-50.54 114 -63.08 114 -76 114 C-76 126.54 -76 139.08 -76 152 C-63.46 152 -50.92 152 -38 152 C-38 170.81 -38 189.62 -38 209 C12.16 209 62.32 209 114 209 C114 196.46 114 183.92 114 171 C101.46 171 88.92 171 76 171 C76 145.92 76 120.84 76 95 C88.54 95 101.08 95 114 95 C114 82.46 114 69.92 114 57 C95.19 57 76.38 57 57 57 C57 44.46 57 31.92 57 19 C44.46 19 31.92 19 19 19 Z " fill="#FFFFFF" transform="translate(95,0)"/>
<path d="M0 0 C31.35 0 62.7 0 95 0 C95 25.08 95 50.16 95 76 C63.65 76 32.3 76 0 76 C0 50.92 0 25.84 0 0 Z M38 19 C38 31.54 38 44.08 38 57 C44.27 57 50.54 57 57 57 C57 44.46 57 31.92 57 19 C50.73 19 44.46 19 38 19 Z " fill="#838383" transform="translate(817,152)"/>
<path d="M0 0 C12.54 0 25.08 0 38 0 C38 18.81 38 37.62 38 57 C44.27 57 50.54 57 57 57 C57 38.19 57 19.38 57 0 C69.54 0 82.08 0 95 0 C95 25.08 95 50.16 95 76 C63.65 76 32.3 76 0 76 C0 50.92 0 25.84 0 0 Z " fill="#838383" transform="translate(494,152)"/>
<path d="M0 0 C25.08 0 50.16 0 76 0 C76 6.27 76 12.54 76 19 C82.27 19 88.54 19 95 19 C95 31.54 95 44.08 95 57 C88.73 57 82.46 57 76 57 C76 63.27 76 69.54 76 76 C50.92 76 25.84 76 0 76 C0 50.92 0 25.84 0 0 Z M38 19 C38 31.54 38 44.08 38 57 C44.27 57 50.54 57 57 57 C57 44.46 57 31.92 57 19 C50.73 19 44.46 19 38 19 Z " fill="#838383" transform="translate(608,152)"/>
<path d="M0 0 C18.81 0 37.62 0 57 0 C57 6.27 57 12.54 57 19 C50.73 19 44.46 19 38 19 C38 44.08 38 69.16 38 95 C44.27 95 50.54 95 57 95 C57 101.27 57 107.54 57 114 C38.19 114 19.38 114 0 114 C0 101.46 0 88.92 0 76 C-6.27 76 -12.54 76 -19 76 C-19 63.46 -19 50.92 -19 38 C-12.73 38 -6.46 38 0 38 C0 25.46 0 12.92 0 0 Z " fill="#838383" transform="translate(95,76)"/>
<path d="M0 0 C25.08 0 50.16 0 76 0 C76 6.27 76 12.54 76 19 C57.19 19 38.38 19 19 19 C19 25.27 19 31.54 19 38 C37.81 38 56.62 38 76 38 C76 56.81 76 75.62 76 95 C50.92 95 25.84 95 0 95 C0 88.73 0 82.46 0 76 C18.81 76 37.62 76 57 76 C57 69.73 57 63.46 57 57 C38.19 57 19.38 57 0 57 C0 38.19 0 19.38 0 0 Z " fill="#FFFFFF" transform="translate(665,19)"/>
<path d="M0 0 C25.08 0 50.16 0 76 0 C76 31.35 76 62.7 76 95 C69.73 95 63.46 95 57 95 C57 82.46 57 69.92 57 57 C44.46 57 31.92 57 19 57 C19 69.54 19 82.08 19 95 C12.73 95 6.46 95 0 95 C0 63.65 0 32.3 0 0 Z M19 19 C19 25.27 19 31.54 19 38 C31.54 38 44.08 38 57 38 C57 31.73 57 25.46 57 19 C44.46 19 31.92 19 19 19 Z " fill="#FFFFFF" transform="translate(570,19)"/>
<path d="M0 0 C25.08 0 50.16 0 76 0 C76 6.27 76 12.54 76 19 C69.73 19 63.46 19 57 19 C57 31.54 57 44.08 57 57 C63.27 57 69.54 57 76 57 C76 63.27 76 69.54 76 76 C50.92 76 25.84 76 0 76 C0 69.73 0 63.46 0 57 C6.27 57 12.54 57 19 57 C19 44.46 19 31.92 19 19 C12.73 19 6.46 19 0 19 C0 12.73 0 6.46 0 0 Z " fill="#838383" transform="translate(722,152)"/>
<path d="M0 0 C25.08 0 50.16 0 76 0 C76 6.27 76 12.54 76 19 C57.19 19 38.38 19 19 19 C19 25.27 19 31.54 19 38 C25.27 38 31.54 38 38 38 C38 44.27 38 50.54 38 57 C31.73 57 25.46 57 19 57 C19 63.27 19 69.54 19 76 C37.81 76 56.62 76 76 76 C76 82.27 76 88.54 76 95 C50.92 95 25.84 95 0 95 C0 63.65 0 32.3 0 0 Z " fill="#FFFFFF" transform="translate(836,19)"/>
<path d="M0 0 C25.08 0 50.16 0 76 0 C76 6.27 76 12.54 76 19 C69.73 19 63.46 19 57 19 C57 37.81 57 56.62 57 76 C44.46 76 31.92 76 19 76 C19 57.19 19 38.38 19 19 C12.73 19 6.46 19 0 19 C0 12.73 0 6.46 0 0 Z " fill="#838383" transform="translate(399,152)"/>
<path d="M0 0 C18.81 0 37.62 0 57 0 C57 6.27 57 12.54 57 19 C44.46 19 31.92 19 19 19 C19 31.54 19 44.08 19 57 C31.54 57 44.08 57 57 57 C57 63.27 57 69.54 57 76 C44.46 76 31.92 76 19 76 C19 82.27 19 88.54 19 95 C12.73 95 6.46 95 0 95 C0 63.65 0 32.3 0 0 Z " fill="#FFFFFF" transform="translate(931,19)"/>
<path d="M0 0 C18.81 0 37.62 0 57 0 C57 6.27 57 12.54 57 19 C50.73 19 44.46 19 38 19 C38 37.81 38 56.62 38 76 C44.27 76 50.54 76 57 76 C57 82.27 57 88.54 57 95 C38.19 95 19.38 95 0 95 C0 88.73 0 82.46 0 76 C6.27 76 12.54 76 19 76 C19 57.19 19 38.38 19 19 C12.73 19 6.46 19 0 19 C0 12.73 0 6.46 0 0 Z " fill="#FFFFFF" transform="translate(418,19)"/>
<path d="M0 0 C18.81 0 37.62 0 57 0 C57 6.27 57 12.54 57 19 C50.73 19 44.46 19 38 19 C38 44.08 38 69.16 38 95 C31.73 95 25.46 95 19 95 C19 69.92 19 44.84 19 19 C12.73 19 6.46 19 0 19 C0 12.73 0 6.46 0 0 Z " fill="#FFFFFF" transform="translate(760,19)"/>
<path d="M0 0 C6.27 0 12.54 0 19 0 C19 31.35 19 62.7 19 95 C0.19 95 -18.62 95 -38 95 C-38 88.73 -38 82.46 -38 76 C-25.46 76 -12.92 76 0 76 C0 50.92 0 25.84 0 0 Z " fill="#FFFFFF" transform="translate(532,19)"/>
<path d="M0 0 C12.54 0 25.08 0 38 0 C38 12.54 38 25.08 38 38 C12.92 38 -12.16 38 -38 38 C-38 31.73 -38 25.46 -38 19 C-25.46 19 -12.92 19 0 19 C0 12.73 0 6.46 0 0 Z " fill="#838383" transform="translate(969,190)"/>
<path d="M0 0 C12.54 0 25.08 0 38 0 C38 12.54 38 25.08 38 38 C12.92 38 -12.16 38 -38 38 C-38 31.73 -38 25.46 -38 19 C-25.46 19 -12.92 19 0 19 C0 12.73 0 6.46 0 0 Z " fill="#838383" transform="translate(342,190)"/>
<path d="M0 0 C25.08 0 50.16 0 76 0 C76 6.27 76 12.54 76 19 C63.46 19 50.92 19 38 19 C38 25.27 38 31.54 38 38 C25.46 38 12.92 38 0 38 C0 25.46 0 12.92 0 0 Z " fill="#838383" transform="translate(931,152)"/>
<path d="M0 0 C25.08 0 50.16 0 76 0 C76 6.27 76 12.54 76 19 C63.46 19 50.92 19 38 19 C38 25.27 38 31.54 38 38 C25.46 38 12.92 38 0 38 C0 25.46 0 12.92 0 0 Z " fill="#838383" transform="translate(304,152)"/>
<path d="M0 0 C6.27 0 12.54 0 19 0 C19 31.35 19 62.7 19 95 C12.73 95 6.46 95 0 95 C0 76.19 0 57.38 0 38 C-6.27 38 -12.54 38 -19 38 C-19 31.73 -19 25.46 -19 19 C-12.73 19 -6.46 19 0 19 C0 12.73 0 6.46 0 0 Z " fill="#FFFFFF" transform="translate(380,19)"/>
<path d="M0 0 C6.27 0 12.54 0 19 0 C19 6.27 19 12.54 19 19 C25.27 19 31.54 19 38 19 C38 25.27 38 31.54 38 38 C31.73 38 25.46 38 19 38 C19 56.81 19 75.62 19 95 C12.73 95 6.46 95 0 95 C0 63.65 0 32.3 0 0 Z " fill="#FFFFFF" transform="translate(304,19)"/>
<path d="M0 0 C6.27 0 12.54 0 19 0 C19 12.54 19 25.08 19 38 C12.73 38 6.46 38 0 38 C0 25.46 0 12.92 0 0 Z " fill="#FFFFFF" transform="translate(988,38)"/>
<path d="M0 0 C6.27 0 12.54 0 19 0 C19 6.27 19 12.54 19 19 C12.73 19 6.46 19 0 19 C0 12.73 0 6.46 0 0 Z " fill="#FFFFEB" transform="translate(209,171)"/>
<path d="M0 0 C6.27 0 12.54 0 19 0 C19 6.27 19 12.54 19 19 C12.73 19 6.46 19 0 19 C0 12.73 0 6.46 0 0 Z " fill="#FFFFFF" transform="translate(988,95)"/>
<path d="M0 0 C6.27 0 12.54 0 19 0 C19 6.27 19 12.54 19 19 C12.73 19 6.46 19 0 19 C0 12.73 0 6.46 0 0 Z " fill="#FFFFFF" transform="translate(342,57)"/>
</svg>
